<mxfile host="app.diagrams.net" agent="Mozilla/5.0 (Windows NT 10.0; Win64; x64) AppleWebKit/537.36 (KHTML, like Gecko) Chrome/133.0.0.0 Safari/537.36" version="26.0.15">
  <diagram name="Page-1" id="UhL0tJ70c9gD4mEM3c8v">
    <mxGraphModel dx="1900" dy="522" grid="1" gridSize="10" guides="1" tooltips="1" connect="1" arrows="1" fold="1" page="1" pageScale="1" pageWidth="850" pageHeight="1100" math="0" shadow="0">
      <root>
        <mxCell id="0" />
        <mxCell id="1" parent="0" />
        <mxCell id="hrMNP202Ad_O2rUtO8kD-1" value="&lt;font style=&quot;font-size: 17px;&quot;&gt;DATA BASE&lt;/font&gt;" style="rounded=0;whiteSpace=wrap;html=1;" vertex="1" parent="1">
          <mxGeometry x="670" y="170" width="120" height="180" as="geometry" />
        </mxCell>
        <mxCell id="hrMNP202Ad_O2rUtO8kD-2" value="" style="rounded=0;whiteSpace=wrap;html=1;" vertex="1" parent="1">
          <mxGeometry x="-70" y="175" width="120" height="60" as="geometry" />
        </mxCell>
        <mxCell id="hrMNP202Ad_O2rUtO8kD-3" value="" style="rounded=0;whiteSpace=wrap;html=1;" vertex="1" parent="1">
          <mxGeometry x="-60" y="185" width="120" height="60" as="geometry" />
        </mxCell>
        <mxCell id="hrMNP202Ad_O2rUtO8kD-4" value="" style="rounded=0;whiteSpace=wrap;html=1;" vertex="1" parent="1">
          <mxGeometry x="-50" y="195" width="120" height="60" as="geometry" />
        </mxCell>
        <mxCell id="hrMNP202Ad_O2rUtO8kD-5" value="" style="rounded=0;whiteSpace=wrap;html=1;" vertex="1" parent="1">
          <mxGeometry x="-40" y="205" width="120" height="60" as="geometry" />
        </mxCell>
        <mxCell id="hrMNP202Ad_O2rUtO8kD-6" value="" style="rounded=0;whiteSpace=wrap;html=1;" vertex="1" parent="1">
          <mxGeometry x="-30" y="215" width="120" height="60" as="geometry" />
        </mxCell>
        <mxCell id="hrMNP202Ad_O2rUtO8kD-7" value="" style="rounded=0;whiteSpace=wrap;html=1;" vertex="1" parent="1">
          <mxGeometry x="-20" y="225" width="120" height="60" as="geometry" />
        </mxCell>
        <mxCell id="hrMNP202Ad_O2rUtO8kD-8" value="" style="rounded=0;whiteSpace=wrap;html=1;" vertex="1" parent="1">
          <mxGeometry x="-10" y="235" width="120" height="60" as="geometry" />
        </mxCell>
        <mxCell id="hrMNP202Ad_O2rUtO8kD-9" value="" style="rounded=0;whiteSpace=wrap;html=1;" vertex="1" parent="1">
          <mxGeometry y="245" width="120" height="60" as="geometry" />
        </mxCell>
        <mxCell id="hrMNP202Ad_O2rUtO8kD-10" value="" style="rounded=0;whiteSpace=wrap;html=1;" vertex="1" parent="1">
          <mxGeometry x="10" y="255" width="120" height="60" as="geometry" />
        </mxCell>
        <mxCell id="hrMNP202Ad_O2rUtO8kD-11" value="" style="rounded=0;whiteSpace=wrap;html=1;" vertex="1" parent="1">
          <mxGeometry x="20" y="265" width="120" height="60" as="geometry" />
        </mxCell>
        <mxCell id="hrMNP202Ad_O2rUtO8kD-36" style="edgeStyle=orthogonalEdgeStyle;rounded=0;orthogonalLoop=1;jettySize=auto;html=1;entryX=0;entryY=0.5;entryDx=0;entryDy=0;" edge="1" parent="1" source="hrMNP202Ad_O2rUtO8kD-12" target="hrMNP202Ad_O2rUtO8kD-28">
          <mxGeometry relative="1" as="geometry" />
        </mxCell>
        <mxCell id="hrMNP202Ad_O2rUtO8kD-12" value="" style="rounded=0;whiteSpace=wrap;html=1;" vertex="1" parent="1">
          <mxGeometry x="30" y="275" width="120" height="60" as="geometry" />
        </mxCell>
        <mxCell id="hrMNP202Ad_O2rUtO8kD-14" value="Loads of Keys" style="text;html=1;align=center;verticalAlign=middle;whiteSpace=wrap;rounded=0;" vertex="1" parent="1">
          <mxGeometry x="10" y="355" width="60" height="30" as="geometry" />
        </mxCell>
        <mxCell id="hrMNP202Ad_O2rUtO8kD-16" value="HSM / TPM" style="rounded=0;whiteSpace=wrap;html=1;" vertex="1" parent="1">
          <mxGeometry x="470" y="50" width="120" height="60" as="geometry" />
        </mxCell>
        <mxCell id="hrMNP202Ad_O2rUtO8kD-18" value="" style="rounded=0;whiteSpace=wrap;html=1;" vertex="1" parent="1">
          <mxGeometry x="370" y="175" width="120" height="60" as="geometry" />
        </mxCell>
        <mxCell id="hrMNP202Ad_O2rUtO8kD-19" value="" style="rounded=0;whiteSpace=wrap;html=1;" vertex="1" parent="1">
          <mxGeometry x="380" y="185" width="120" height="60" as="geometry" />
        </mxCell>
        <mxCell id="hrMNP202Ad_O2rUtO8kD-20" value="" style="rounded=0;whiteSpace=wrap;html=1;" vertex="1" parent="1">
          <mxGeometry x="390" y="195" width="120" height="60" as="geometry" />
        </mxCell>
        <mxCell id="hrMNP202Ad_O2rUtO8kD-21" value="" style="rounded=0;whiteSpace=wrap;html=1;" vertex="1" parent="1">
          <mxGeometry x="400" y="205" width="120" height="60" as="geometry" />
        </mxCell>
        <mxCell id="hrMNP202Ad_O2rUtO8kD-22" value="" style="rounded=0;whiteSpace=wrap;html=1;" vertex="1" parent="1">
          <mxGeometry x="410" y="215" width="120" height="60" as="geometry" />
        </mxCell>
        <mxCell id="hrMNP202Ad_O2rUtO8kD-23" value="" style="rounded=0;whiteSpace=wrap;html=1;" vertex="1" parent="1">
          <mxGeometry x="420" y="225" width="120" height="60" as="geometry" />
        </mxCell>
        <mxCell id="hrMNP202Ad_O2rUtO8kD-24" value="" style="rounded=0;whiteSpace=wrap;html=1;" vertex="1" parent="1">
          <mxGeometry x="430" y="235" width="120" height="60" as="geometry" />
        </mxCell>
        <mxCell id="hrMNP202Ad_O2rUtO8kD-25" value="" style="rounded=0;whiteSpace=wrap;html=1;" vertex="1" parent="1">
          <mxGeometry x="440" y="245" width="120" height="60" as="geometry" />
        </mxCell>
        <mxCell id="hrMNP202Ad_O2rUtO8kD-26" value="" style="rounded=0;whiteSpace=wrap;html=1;" vertex="1" parent="1">
          <mxGeometry x="450" y="255" width="120" height="60" as="geometry" />
        </mxCell>
        <mxCell id="hrMNP202Ad_O2rUtO8kD-27" value="" style="rounded=0;whiteSpace=wrap;html=1;" vertex="1" parent="1">
          <mxGeometry x="460" y="265" width="120" height="60" as="geometry" />
        </mxCell>
        <mxCell id="hrMNP202Ad_O2rUtO8kD-38" style="edgeStyle=orthogonalEdgeStyle;rounded=0;orthogonalLoop=1;jettySize=auto;html=1;exitX=1;exitY=0.5;exitDx=0;exitDy=0;entryX=0;entryY=0.75;entryDx=0;entryDy=0;" edge="1" parent="1" source="hrMNP202Ad_O2rUtO8kD-28" target="hrMNP202Ad_O2rUtO8kD-1">
          <mxGeometry relative="1" as="geometry" />
        </mxCell>
        <mxCell id="hrMNP202Ad_O2rUtO8kD-28" value="" style="rounded=0;whiteSpace=wrap;html=1;" vertex="1" parent="1">
          <mxGeometry x="470" y="275" width="120" height="60" as="geometry" />
        </mxCell>
        <mxCell id="hrMNP202Ad_O2rUtO8kD-29" value="Encrypted keys" style="text;html=1;align=center;verticalAlign=middle;whiteSpace=wrap;rounded=0;" vertex="1" parent="1">
          <mxGeometry x="450" y="355" width="60" height="30" as="geometry" />
        </mxCell>
        <mxCell id="hrMNP202Ad_O2rUtO8kD-32" style="edgeStyle=orthogonalEdgeStyle;rounded=0;orthogonalLoop=1;jettySize=auto;html=1;entryX=0;entryY=0.5;entryDx=0;entryDy=0;" edge="1" parent="1" source="hrMNP202Ad_O2rUtO8kD-33" target="hrMNP202Ad_O2rUtO8kD-16">
          <mxGeometry relative="1" as="geometry" />
        </mxCell>
        <mxCell id="hrMNP202Ad_O2rUtO8kD-35" style="edgeStyle=orthogonalEdgeStyle;rounded=0;orthogonalLoop=1;jettySize=auto;html=1;exitX=0;exitY=0.75;exitDx=0;exitDy=0;entryX=1;entryY=0;entryDx=0;entryDy=0;" edge="1" parent="1" source="hrMNP202Ad_O2rUtO8kD-30" target="hrMNP202Ad_O2rUtO8kD-7">
          <mxGeometry relative="1" as="geometry" />
        </mxCell>
        <mxCell id="hrMNP202Ad_O2rUtO8kD-30" value="KEY ENCRYPTING KEY" style="whiteSpace=wrap;html=1;aspect=fixed;" vertex="1" parent="1">
          <mxGeometry x="240" y="30" width="100" height="100" as="geometry" />
        </mxCell>
        <mxCell id="hrMNP202Ad_O2rUtO8kD-34" value="" style="edgeStyle=orthogonalEdgeStyle;rounded=0;orthogonalLoop=1;jettySize=auto;html=1;entryX=0;entryY=0.5;entryDx=0;entryDy=0;" edge="1" parent="1" source="hrMNP202Ad_O2rUtO8kD-30" target="hrMNP202Ad_O2rUtO8kD-33">
          <mxGeometry relative="1" as="geometry">
            <mxPoint x="340" y="80" as="sourcePoint" />
            <mxPoint x="470" y="80" as="targetPoint" />
          </mxGeometry>
        </mxCell>
        <mxCell id="hrMNP202Ad_O2rUtO8kD-33" value="stored in" style="text;html=1;align=center;verticalAlign=middle;whiteSpace=wrap;rounded=0;" vertex="1" parent="1">
          <mxGeometry x="380" y="65" width="60" height="30" as="geometry" />
        </mxCell>
        <mxCell id="hrMNP202Ad_O2rUtO8kD-39" value="Encrypting the keys using kEK" style="text;html=1;align=center;verticalAlign=middle;whiteSpace=wrap;rounded=0;" vertex="1" parent="1">
          <mxGeometry x="230" y="255" width="120" height="70" as="geometry" />
        </mxCell>
      </root>
    </mxGraphModel>
  </diagram>
</mxfile>
